<?xml version="1.0" encoding="utf-8"?>
<!-- Generator: Adobe Illustrator 16.0.4, SVG Export Plug-In . SVG Version: 6.00 Build 0)  -->
<!DOCTYPE svg PUBLIC "-//W3C//DTD SVG 1.1//EN" "http://www.w3.org/Graphics/SVG/1.1/DTD/svg11.dtd">
<svg version="1.1" id="Layer_1" xmlns="http://www.w3.org/2000/svg" xmlns:xlink="http://www.w3.org/1999/xlink" x="0px" y="0px"
	 width="184.5px" height="45.8px" viewBox="0 0 184.5 45.8" enable-background="new 0 0 184.5 45.8" xml:space="preserve">
<g id="divider">
</g>
<g id="OfficeName_x5F_On">
	<g enable-background="new    ">
		<path fill="#231F20" d="M11.5,13c0,3.8-2.4,5.2-6,5.2c-1.7,0-3.7-0.3-4.8-0.9v-3.4c0.7,0.4,2.4,1.2,4.5,1.2c2.3,0,3-0.7,3-1.8
			c0-1.2-0.5-1.6-2.1-1.8C2.2,11,0.7,9.9,0.7,6.8c0-2.8,1.7-4.6,5.8-4.6c2.1,0,3.6,0.4,4.4,0.8v3.2C9.9,5.7,8.2,5.3,6.7,5.3
			C5,5.3,4,5.9,4,6.8c0,1.1,0.6,1.5,2.2,1.7C9.6,9,11.5,9.7,11.5,13z"/>
		<path fill="#231F20" d="M18.4,10.7c0-0.5-0.3-0.7-1.2-0.7c-1.3,0-2.8,0.4-3.7,0.8V8c0.7-0.3,2.2-0.7,3.7-0.7
			c3.7,0,4.4,1.6,4.4,3.9v6.7h-2l-0.5-0.8c-0.7,0.7-1.8,1.1-3,1.1c-2.6,0-3.5-1.7-3.5-3.3c0-2.8,2-3.2,3.9-3.4l1.9-0.2V10.7z
			 M17,13.3c-0.9,0.1-1.3,0.6-1.3,1.4c0,0.8,0.5,1.2,1.2,1.2c0.6,0,1.2-0.2,1.5-0.5v-2.3L17,13.3z"/>
		<path fill="#231F20" d="M25.3,7.6l0.4,0.7c1.2-0.7,2.4-1,3.6-1c2.8,0,3.6,1.5,3.6,3.5v7.1h-3.3v-6.6c0-0.8-0.3-1.3-1.2-1.3
			c-0.8,0-1.5,0.3-1.8,0.5v7.4h-3.3V7.6H25.3z"/>
		<path fill="#231F20" d="M42,17.9l-0.6-0.8c-0.7,0.6-1.7,1.1-3.3,1.1c-2.7,0-4-1.6-4-5.4s1.3-5.4,4-5.4c1.1,0,2,0.3,2.6,0.7V2.5H44
			v15.4H42z M40.7,10.4c0,0-0.6-0.4-1.5-0.4c-1.5,0-1.8,1-1.8,2.8c0,1.8,0.3,2.8,1.8,2.8c0.8,0,1.5-0.4,1.5-0.4V10.4z"/>
		<path fill="#231F20" d="M45.9,17.9V2.5h3.3V8c0.6-0.4,1.4-0.7,2.6-0.7c2.7,0,4,1.6,4,5.4s-1.3,5.4-4,5.4c-1.6,0-2.6-0.5-3.3-1.1
			l-0.6,0.8H45.9z M49.1,15.1c0,0,0.6,0.4,1.5,0.4c1.5,0,1.8-1,1.8-2.8c0-1.7-0.3-2.8-1.8-2.8c-0.8,0-1.5,0.4-1.5,0.4V15.1z"/>
		<path fill="#231F20" d="M56.7,12.8c0-3.2,1-5.4,4.8-5.4c3.8,0,4.8,2.2,4.8,5.4s-1,5.4-4.8,5.4C57.7,18.2,56.7,16,56.7,12.8z
			 M60,12.8c0,2.1,0.4,2.8,1.5,2.8c1.1,0,1.5-0.7,1.5-2.8S62.7,10,61.5,10C60.4,10,60,10.7,60,12.8z"/>
		<path fill="#231F20" d="M71.9,14.7l-1.6,3.1h-3.6l3.1-5.3l-2.8-5h3.6l1.4,2.9l1.4-2.9h3.6l-2.8,5l3.1,5.3h-3.6L71.9,14.7z"/>
		<path fill="#231F20" d="M82.6,17.9V2.5h3.3v15.4H82.6z"/>
		<path fill="#231F20" d="M90,7.6l0.4,0.7c1.2-0.7,2.4-1,3.6-1c2.8,0,3.6,1.5,3.6,3.5v7.1h-3.3v-6.6c0-0.8-0.3-1.3-1.2-1.3
			c-0.8,0-1.5,0.3-1.8,0.5v7.4H88V7.6H90z"/>
		<path fill="#231F20" d="M101.3,7.6l0.4,0.7c1.2-0.7,2.4-1,3.6-1c2.8,0,3.6,1.5,3.6,3.5v7.1h-3.3v-6.6c0-0.8-0.3-1.3-1.2-1.3
			c-0.8,0-1.5,0.3-1.8,0.5v7.4h-3.3V7.6H101.3z"/>
		<path fill="#231F20" d="M110.2,12.8c0-3.2,1-5.4,4.8-5.4c3.8,0,4.8,2.2,4.8,5.4s-1,5.4-4.8,5.4C111.2,18.2,110.2,16,110.2,12.8z
			 M113.5,12.8c0,2.1,0.4,2.8,1.5,2.8c1.1,0,1.5-0.7,1.5-2.8S116.1,10,115,10C113.9,10,113.5,10.7,113.5,12.8z"/>
		<path fill="#231F20" d="M124.1,18l-3.8-10.4h3.4l1.8,6.4l1.8-6.4h3.4L126.9,18H124.1z"/>
		<path fill="#231F20" d="M136.6,10.7c0-0.5-0.3-0.7-1.2-0.7c-1.3,0-2.8,0.4-3.7,0.8V8c0.7-0.3,2.2-0.7,3.7-0.7
			c3.7,0,4.4,1.6,4.4,3.9v6.7h-2l-0.5-0.8c-0.7,0.7-1.8,1.1-3,1.1c-2.6,0-3.5-1.7-3.5-3.3c0-2.8,2-3.2,3.9-3.4l1.9-0.2V10.7z
			 M135.2,13.3c-0.9,0.1-1.3,0.6-1.3,1.4c0,0.8,0.5,1.2,1.2,1.2c0.6,0,1.2-0.2,1.5-0.5v-2.3L135.2,13.3z"/>
		<path fill="#231F20" d="M148,18c-0.5,0.1-1.2,0.2-1.7,0.2c-2.9,0-4-1.2-4-3.6v-4.2h-1.7V8.2l1.7-0.5V5.6l3.3-0.9v2.9h2.5v2.7h-2.5
			v3.9c0,0.8,0.3,1.3,1.4,1.3c0.4,0,0.8-0.1,1-0.1V18z"/>
		<path fill="#231F20" d="M151.3,2.7c1.1,0,2,0.9,2,2c0,1.1-0.9,2-2,2c-1.1,0-2-0.8-2-2C149.4,3.5,150.2,2.7,151.3,2.7z M153.8,18
			c0,0-0.4,0.1-0.9,0.1c-1.8,0-3.2-0.9-3.2-2.9V7.6h3.3v7.1c0,0.4,0.2,0.6,0.8,0.6V18z"/>
		<path fill="#231F20" d="M154.8,12.8c0-3.2,1-5.4,4.8-5.4c3.8,0,4.8,2.2,4.8,5.4s-1,5.4-4.8,5.4C155.8,18.2,154.8,16,154.8,12.8z
			 M158.1,12.8c0,2.1,0.4,2.8,1.5,2.8c1.1,0,1.5-0.7,1.5-2.8s-0.4-2.8-1.5-2.8C158.5,10,158.1,10.7,158.1,12.8z"/>
		<path fill="#231F20" d="M167.9,7.6l0.4,0.7c1.2-0.7,2.4-1,3.6-1c2.8,0,3.6,1.5,3.6,3.5v7.1h-3.3v-6.6c0-0.8-0.3-1.3-1.2-1.3
			c-0.8,0-1.5,0.3-1.8,0.5v7.4h-3.3V7.6H167.9z"/>
	</g>
	<g enable-background="new    ">
		<path fill="#231F20" d="M10,33.9H4.2v6.3H0.9V24.8h9.7v3H4.2V31H10V33.9z"/>
		<path fill="#231F20" d="M19.3,40.2l-0.4-0.7c-1.1,0.7-2.4,1-3.6,1c-2.8,0-3.6-1.5-3.6-3.4v-7.1H15v6.6c0,0.8,0.3,1.3,1.2,1.3
			c0.8,0,1.5-0.3,1.8-0.5v-7.4h3.3v10.3H19.3z"/>
		<path fill="#231F20" d="M25.1,29.9l0.4,0.7c1.2-0.7,2.4-1,3.6-1c2.8,0,3.6,1.5,3.6,3.5v7.1h-3.3v-6.6c0-0.8-0.3-1.3-1.2-1.3
			c-0.8,0-1.5,0.3-1.8,0.5v7.4h-3.3V29.9H25.1z"/>
		<path fill="#231F20" d="M41.9,40.2l-0.6-0.8c-0.7,0.6-1.7,1.1-3.3,1.1c-2.7,0-4-1.6-4-5.4s1.3-5.4,4-5.4c1.1,0,2,0.3,2.6,0.7v-5.5
			h3.3v15.4H41.9z M40.6,32.7c0,0-0.6-0.4-1.5-0.4c-1.5,0-1.8,1-1.8,2.8c0,1.8,0.3,2.8,1.8,2.8c0.8,0,1.5-0.4,1.5-0.4V32.7z"/>
		<path fill="#231F20" d="M53.1,40.2h-3.3V24.8h5.2c4.1,0,5.5,2.4,5.5,5c0,2.7-1.4,5-5.5,5h-1.9V40.2z M53.1,31.9h2
			c1.6,0,2-1.3,2-2.1s-0.3-2.1-2-2.1h-2V31.9z"/>
		<path fill="#231F20" d="M67.8,32.4c-0.2,0-0.6-0.1-1-0.1c-1,0-1.9,0.3-2.2,0.6v7.2h-3.3V29.9h2l0.4,0.7c0.5-0.5,1.6-1,3.2-1
			c0.4,0,0.8,0.1,0.9,0.1V32.4z"/>
		<path fill="#231F20" d="M68.5,35.1c0-3.2,1-5.4,4.8-5.4c3.8,0,4.8,2.2,4.8,5.4c0,3.2-1,5.4-4.8,5.4C69.5,40.5,68.5,38.3,68.5,35.1
			z M71.8,35.1c0,2.1,0.4,2.8,1.5,2.8c1.1,0,1.5-0.7,1.5-2.8c0-2.1-0.4-2.8-1.5-2.8C72.2,32.3,71.8,33,71.8,35.1z"/>
		<path fill="#231F20" d="M83.8,29.6c0.9,0,1.7,0,2.4,0.3h3.3v2.2l-1.2,0.3c0.1,0.3,0.1,0.7,0.1,1.1c0,2.6-1.4,3.9-4.6,3.9
			c-0.4,0-0.7,0-1,0c-0.1,0.1-0.1,0.2-0.1,0.4c0,0.2,0.1,0.3,0.4,0.4l4,0.5c2.2,0.3,2.8,1.4,2.8,3c0,2.8-3.2,3.8-6.3,3.8
			c-2.6,0-4.9-0.8-4.9-2.8c0-1.4,1.1-2.3,2.1-2.5c-0.6-0.3-0.9-1-0.9-1.7c0-0.6,0.4-1.3,1.1-1.8c-1.1-0.7-1.7-1.7-1.7-3.3
			C79.2,31,80.6,29.6,83.8,29.6z M82.4,40.9c-0.4,0.2-0.8,0.6-0.8,1c0,0.7,0.6,1.2,2.2,1.2c1.6,0,2.7-0.5,2.7-1.2
			c0-0.3-0.2-0.5-0.6-0.6L82.4,40.9z M83.8,35.1c1,0,1.5-0.5,1.5-1.5s-0.5-1.5-1.5-1.5s-1.5,0.5-1.5,1.5S82.8,35.1,83.8,35.1z"/>
		<path fill="#231F20" d="M97.1,32.4c-0.2,0-0.6-0.1-1-0.1c-1,0-1.9,0.3-2.2,0.6v7.2h-3.3V29.9h2l0.4,0.7c0.5-0.5,1.6-1,3.2-1
			c0.4,0,0.8,0.1,0.9,0.1V32.4z"/>
		<path fill="#231F20" d="M103.2,33c0-0.5-0.3-0.7-1.2-0.7c-1.3,0-2.8,0.4-3.7,0.8v-2.8c0.7-0.3,2.2-0.7,3.7-0.7
			c3.7,0,4.4,1.6,4.4,3.9v6.7h-2l-0.5-0.8c-0.7,0.7-1.8,1.1-3,1.1c-2.6,0-3.5-1.7-3.5-3.3c0-2.8,2-3.2,3.9-3.4l1.9-0.2V33z
			 M101.8,35.6c-0.9,0.1-1.3,0.6-1.3,1.4c0,0.8,0.5,1.2,1.2,1.2c0.6,0,1.2-0.2,1.5-0.5v-2.3L101.8,35.6z"/>
		<path fill="#231F20" d="M119.5,40.2v-7.1c0-0.5-0.3-0.8-0.9-0.8c-0.7,0-1.3,0.3-1.5,0.5v7.4h-3.3v-7.1c0-0.5-0.3-0.8-0.9-0.8
			c-0.7,0-1.3,0.3-1.5,0.5v7.4h-3.3V29.9h2l0.4,0.7c0.7-0.6,2.2-1,3.2-1c1.4,0,2.1,0.4,2.4,0.8c0.7-0.6,2.1-0.8,3.3-0.8
			c2.7,0,3.4,1.6,3.4,3.5v7.1H119.5z"/>
	</g>
</g>
<g id="OfficeName_x5F_Off">
</g>
<g id="MITLogo_x5F_On">
</g>
<g id="MITLogo_x5F_Off">
</g>
</svg>
